<svg display="none" version="1.1" xmlns="http://www.w3.org/2000/svg" xmlns:xlink="http://www.w3.org/1999/xlink">
<defs>
<symbol id="icon-gift" viewBox="0 0 1024 1024">
	<title>gift</title>
	<path class="path1" d="M771.516 320c18.126-12.88 35.512-27.216 51.444-43.148 33.402-33.402 55.746-74.5 62.912-115.722 7.858-45.186-3.672-87.14-31.63-115.1-22.3-22.298-52.51-34.086-87.364-34.086-49.632 0-101.922 23.824-143.46 65.362-66.476 66.476-105.226 158.238-126.076 223.722-15.44-65.802-46.206-154.644-106.018-214.458-32.094-32.092-73.114-48.57-111.846-48.57-31.654 0-61.78 11.004-84.26 33.486-49.986 49.988-43.232 137.786 15.086 196.104 20.792 20.792 45.098 38.062 70.72 52.412h-217.024v256h64v448h768v-448.002h64v-256h-188.484zM674.326 128.218c27.724-27.724 62.322-44.274 92.55-44.274 10.7 0 25.708 2.254 36.45 12.998 26.030 26.028 11.412 86.308-31.28 128.998-43.946 43.946-103.060 74.168-154.432 94.060h-50.672c18.568-57.548 52.058-136.456 107.384-191.782zM233.934 160.89c-0.702-9.12-0.050-26.248 12.196-38.494 10.244-10.244 23.788-12.396 33.348-12.396v0c21.258 0 43.468 10.016 60.932 27.48 33.872 33.872 61.766 87.772 80.668 155.876 0.51 1.84 1.008 3.67 1.496 5.486-1.816-0.486-3.646-0.984-5.486-1.496-68.104-18.904-122.002-46.798-155.874-80.67-15.828-15.826-25.77-36.16-27.28-55.786zM448 960h-256v-416h256v416zM448 512h-320v-128h320v128zM832 960h-256v-416h256v416zM896 512h-320v-128h320v128z" />
</symbol>
<symbol id="icon-signup" viewBox="0 0 1024 1024">
	<title>signup</title>
	<path class="path1" d="M448 794.51l-205.254-237.254 58.508-58.51 146.746 114.744 274.744-242.744 58.512 58.508zM831.772 128c0.078 0.066 0.162 0.15 0.228 0.23v767.542c-0.066 0.078-0.15 0.162-0.228 0.228h-639.544c-0.080-0.066-0.162-0.15-0.228-0.228v-767.544c0.066-0.080 0.15-0.162 0.23-0.228h-128.23v768c0 70.4 57.6 128 128 128h640c70.4 0 128-57.6 128-128v-768h-128.228zM640 128v-64c0-35.346-28.654-64-64-64h-128c-35.346 0-64 28.654-64 64v64h-128v128h512v-128h-128zM576 128h-128v-64h128v64z" />
</symbol>
<symbol id="icon-facebook" viewBox="0 0 1024 1024">
	<title>facebook</title>
	<path class="path1" d="M853.344 0h-682.66c-93.872 0-170.684 76.814-170.684 170.688v682.626c0 93.938 76.812 170.686 170.684 170.686l682.66-0.002c93.876 0 170.656-76.746 170.656-170.688v-682.622c0-93.874-76.782-170.688-170.656-170.688zM870.592 512h-166.592v448h-192v-448h-92.526v-146.564h92.526v-95.186c0-129.342 55.792-206.25 207.87-206.25h175.244v158.57h-143.13c-42.482-0.070-47.752 22.152-47.752 63.512l-0.232 79.354h192l-25.408 146.564z" />
</symbol>
<symbol id="icon-twitter" viewBox="0 0 1024 1024">
	<title>twitter</title>
	<path class="path1" d="M853.342 0h-682.656c-93.874 0-170.686 76.81-170.686 170.69v682.622c0 93.938 76.812 170.688 170.686 170.688h682.656c93.876 0 170.658-76.75 170.658-170.69v-682.62c0-93.88-76.782-170.69-170.658-170.69zM838.052 341.834c0.328 7.342 0.49 14.728 0.49 22.148 0 226.214-169.216 487.068-478.658 487.068-95.004 0-183.434-28.348-257.886-76.918 13.16 1.588 26.552 2.394 40.13 2.394 78.822 0 151.358-27.37 208.934-73.282-73.616-1.38-135.744-50.876-157.154-118.882 10.274 2 20.812 3.074 31.652 3.074 15.344 0 30.206-2.096 44.32-6.008-76.96-15.732-134.95-84.916-134.95-167.856 0-0.722 0-1.438 0.016-2.152 22.68 12.82 48.624 20.52 76.2 21.41-45.142-30.698-74.842-83.092-74.842-142.488 0-31.37 8.294-60.778 22.778-86.058 82.974 103.57 206.936 171.72 346.754 178.862-2.87-12.532-4.358-25.596-4.358-39.014 0-94.538 75.326-171.18 168.23-171.18 48.39 0 92.118 20.786 122.802 54.058 38.32-7.676 74.324-21.92 106.832-41.542-12.562 39.976-39.234 73.522-73.966 94.71 34.026-4.138 66.452-13.34 96.62-26.954-22.546 34.324-51.070 64.476-83.944 88.61z" />
</symbol>
<symbol id="icon-dribbble" viewBox="0 0 1024 1024">
	<title>dribbble</title>
	<path class="path1" d="M538.752 515.924c-197.352 63.796-302.372 237.678-311.042 252.522-61.116-67.842-98.374-157.576-98.374-255.858 0-3.916 0.078-7.81 0.196-11.696 16.744 0.342 202.18 2.732 393.278-54.458 10.952 21.44 21.416 43.202 31.024 64.94-5.064 1.426-10.092 2.94-15.082 4.55zM765.666 226.346c-6.882 9.804-64.486 87.23-200.556 138.228-62.704-115.206-132.206-209.85-142.782-224.012 28.776-6.936 58.798-10.64 89.674-10.64 97.23 0 186.088 36.47 253.664 96.424zM491.188 387.588c-178.996 47.532-336.65 46.848-353.766 46.622 24.814-118.742 104.836-217.432 211.892-267.926 10.088 13.834 78.472 108.594 141.874 221.304zM577.32 575.5c0.84-0.292 1.68-0.564 2.522-0.852 53.724 139.606 75.942 256.612 81.636 290.186-45.946 19.568-96.466 30.41-149.476 30.41-88.464 0-170.002-30.184-234.882-80.78 6.886-14.078 84.364-163.754 300.2-238.964zM852 0h-680c-94.6 0-172 77.4-172 172v680c0 94.6 77.4 172 172 172h680c94.6 0 172-77.4 172-172v-680c0-94.6-77.4-172-172-172zM512.002 960c-247.030 0-448.002-200.97-448.002-448 0-247.028 200.972-448 448.002-448 247.032 0 447.998 200.972 447.998 448 0 247.030-200.966 448-447.998 448zM651.464 556.964c119.916-19.192 225.266 12.232 238.36 16.36-17.060 106.474-78.172 198.428-164.020 256.472-3.922-23.276-24.288-135.294-74.34-272.832zM594.532 421.476c141.484-57.764 205.608-139.964 213.674-150.88 53.292 65.116 85.566 148.052 86.412 238.372-12.618-2.668-139.13-28.328-266.458-12.316-2.682-6.552-5.426-13.134-8.242-19.75-7.944-18.66-16.482-37.198-25.386-55.426z" />
</symbol>
</defs>
</svg>
